<svg xmlns="http://www.w3.org/2000/svg" viewBox="0 0 512 512"><defs><style>.cls-1{fill:#BD0063;}.cls-2{fill:#f58d89;}.cls-3{fill:#fab3a7;}.cls-4{fill:#fac7bb;}.cls-5{fill:#fff;}.cls-6{fill:#3e446d;}.cls-7{fill:#33314b;}.cls-8{fill:#505075;}</style></defs><g id="BULINE"><circle class="cls-1" cx="256" cy="256" r="256"/></g><g id="Icons"><path class="cls-2" d="M431.36,195.37a157.64,157.64,0,0,1-25.05,85.53,115.55,115.55,0,0,0-18,62.57v109a22.59,22.59,0,0,1-22.59,22.59H258.35a22.59,22.59,0,0,1-22.59-22.59V421a14.37,14.37,0,0,0-14.37-14.37H187.81a73.36,73.36,0,0,1-73.33-73.33v-6.1a15.82,15.82,0,0,0-15.82-15.82H89.31A8.66,8.66,0,0,1,82,298l25-38.69a46.47,46.47,0,0,0,7.44-25.21v-37c0-87.57,70.32-159.86,157.88-160.16a158.32,158.32,0,0,1,159,158.45Z"/><path class="cls-3" d="M431.36,195.37a157.64,157.64,0,0,1-25.05,85.53,115.55,115.55,0,0,0-18,62.57v109a22.59,22.59,0,0,1-22.59,22.59H258.35a22.59,22.59,0,0,1-22.59-22.59V421a14.37,14.37,0,0,0-14.37-14.37H187.81A73,73,0,0,1,135,384.19L156,351.81a46.42,46.42,0,0,0,7.44-25.21v-37c0-87.56,70.32-159.86,157.88-160.16A157.84,157.84,0,0,1,429.6,171.7,157.85,157.85,0,0,1,431.36,195.37Z"/><circle class="cls-4" cx="361.52" cy="428.24" r="13.7"/><circle class="cls-4" cx="361.52" cy="399.7" r="9.7"/><path class="cls-5" d="M387.8,199.59h-99l76.67-78.22a4,4,0,0,0-5.72-5.6l-76.51,78.06L282.83,90a4,4,0,0,0-8,0l.45,113.54-.54,108.65a4,4,0,0,0,4,4h0a4,4,0,0,0,4-4l.5-100L362.05,280a4,4,0,0,0,5.21-6.07l-77.19-66.3H387.8a4,4,0,0,0,0-8Z"/><circle class="cls-6" cx="277.74" cy="203.59" r="31.11"/><path class="cls-7" d="M285.18,233.8a31.11,31.11,0,1,1,0-60.42,31.11,31.11,0,0,0,0,60.42Z"/><circle class="cls-8" cx="289.43" cy="203.59" r="10.15"/><circle class="cls-6" cx="277.74" cy="90.04" r="22.06"/><path class="cls-7" d="M283,111.45a21.79,21.79,0,0,1-5.27.64,22.06,22.06,0,1,1,0-44.11,21.79,21.79,0,0,1,5.27.64,22.05,22.05,0,0,0,0,42.83Z"/><circle class="cls-8" cx="286.03" cy="90.04" r="7.2"/><circle class="cls-6" cx="361.52" cy="118.57" r="22.06"/><path class="cls-7" d="M366.79,140a21.79,21.79,0,0,1-5.27.64,22.06,22.06,0,1,1,0-44.11,21.79,21.79,0,0,1,5.27.64,22,22,0,0,0,0,42.83Z"/><circle class="cls-8" cx="369.81" cy="118.57" r="7.2"/><circle class="cls-6" cx="361.52" cy="279.32" r="22.06"/><path class="cls-7" d="M356.25,300.74a21.71,21.71,0,0,0,5.26.63,22.05,22.05,0,1,0,0-44.1,21.71,21.71,0,0,0-5.26.64,22.05,22.05,0,0,1,0,42.83Z"/><circle class="cls-8" cx="353.23" cy="279.32" r="7.2"/><circle class="cls-6" cx="277.74" cy="307.86" r="22.06"/><path class="cls-7" d="M272.47,329.27a21.71,21.71,0,0,0,5.26.64,22.06,22.06,0,1,0,0-44.11,21.71,21.71,0,0,0-5.26.64,22.05,22.05,0,0,1,0,42.83Z"/><circle class="cls-8" cx="269.45" cy="307.86" r="7.2"/><circle class="cls-6" cx="386.71" cy="203.59" r="22.06"/><path class="cls-7" d="M392,225a22.3,22.3,0,0,1-5.27.63,22.05,22.05,0,1,1,0-44.1,22.3,22.3,0,0,1,5.27.63A22.06,22.06,0,0,0,392,225Z"/><circle class="cls-8" cx="395" cy="203.59" r="7.2"/></g></svg>